<svg width="16" height="17" viewBox="0 0 16 17" fill="none" xmlns="http://www.w3.org/2000/svg">
<g opacity="0.7">
<path d="M14.4467 10.0333L14.18 13.3667C14.08 14.3867 14 15.1667 12.1933 15.1667H3.80667C2 15.1667 1.92 14.3867 1.82 13.3667L1.55334 10.0333C1.5 9.48 1.67334 8.96666 1.98667 8.57333C1.99334 8.56666 1.99334 8.56666 2 8.56C2.36667 8.11333 2.92 7.83333 3.54 7.83333H12.46C13.08 7.83333 13.6267 8.11333 13.9867 8.54666C13.9933 8.55333 14 8.56 14 8.56666C14.3267 8.96 14.5067 9.47333 14.4467 10.0333Z" stroke="black" stroke-width="1.5" stroke-miterlimit="10"/>
<path d="M2.33334 8.12V4.68667C2.33334 2.42 2.9 1.85333 5.16667 1.85333H6.01334C6.86 1.85333 7.05334 2.10667 7.37334 2.53333L8.22 3.66667C8.43334 3.94667 8.56 4.12 9.12667 4.12H10.8267C13.0933 4.12 13.66 4.68667 13.66 6.95333V8.14667" stroke="black" stroke-width="1.5" stroke-miterlimit="10" stroke-linecap="round" stroke-linejoin="round"/>
<path d="M6.28667 11.8333H9.71333" stroke="#292D32" stroke-width="1.5" stroke-miterlimit="10" stroke-linecap="round" stroke-linejoin="round"/>
</g>
</svg>
